<svg width="31" height="32" viewBox="0 0 31 32" fill="none" xmlns="http://www.w3.org/2000/svg">
<path fill-rule="evenodd" clip-rule="evenodd" d="M18.1047 0.505071C18.3538 0.181658 18.6915 0 19.0436 0C19.3957 0 19.7334 0.181658 19.9825 0.505071L30.6114 14.3212C30.8602 14.645 31 15.084 31 15.5416C31 15.9993 30.8602 16.4382 30.6114 16.7621L19.9825 30.5782C19.8608 30.7479 19.7142 30.884 19.5512 30.9784C19.3882 31.0727 19.2123 31.1235 19.0339 31.1276C18.8555 31.1317 18.6783 31.089 18.5128 31.0022C18.3474 30.9153 18.1971 30.786 18.071 30.622C17.9448 30.458 17.8453 30.2627 17.7785 30.0476C17.7117 29.8326 17.6789 29.6023 17.682 29.3704C17.6852 29.1385 17.7242 28.9098 17.7968 28.698C17.8694 28.4861 17.9741 28.2954 18.1047 28.1373L26.4661 17.2686H1.32862C0.976249 17.2686 0.638309 17.0867 0.389144 16.7628C0.139979 16.4389 0 15.9997 0 15.5416C0 15.0836 0.139979 14.6443 0.389144 14.3204C0.638309 13.9966 0.976249 13.8146 1.32862 13.8146H26.4661L18.1047 2.94592C17.8559 2.62211 17.7161 2.18316 17.7161 1.7255C17.7161 1.26784 17.8559 0.828888 18.1047 0.505071Z" fill="black"/>
</svg>
