<svg width="10" height="6" viewBox="0 0 10 6" fill="none" xmlns="http://www.w3.org/2000/svg">
<path fill-rule="evenodd" clip-rule="evenodd" d="M5.5402 5.5402C5.39935 5.681 5.20834 5.7601 5.00918 5.7601C4.81002 5.7601 4.61902 5.681 4.47817 5.5402L0.229297 1.29133C0.157561 1.22204 0.100341 1.13916 0.060978 1.04753C0.0216145 0.955894 0.000894969 0.857337 2.83581e-05 0.757608C-0.000838252 0.65788 0.0181656 0.558978 0.0559307 0.466673C0.0936957 0.374368 0.149466 0.290508 0.219987 0.219987C0.290508 0.149466 0.374368 0.0936954 0.466673 0.0559303C0.558978 0.0181652 0.65788 -0.000838252 0.757608 2.83586e-05C0.857337 0.000894969 0.955893 0.0216145 1.04753 0.060978C1.13916 0.100341 1.22204 0.15756 1.29133 0.229296L5.00918 3.94715L8.72704 0.229296C8.86869 0.0924806 9.05842 0.0167758 9.25535 0.0184871C9.45228 0.0201984 9.64066 0.0991887 9.77992 0.238445C9.91917 0.377702 9.99817 0.566083 9.99988 0.763014C10.0016 0.959945 9.92588 1.14967 9.78907 1.29133L5.5402 5.5402Z" fill="black"/>
</svg>
