<svg width="32" height="33" viewBox="0 0 32 33" fill="none" xmlns="http://www.w3.org/2000/svg">
<path d="M25.2631 25.8947C26.1565 25.8947 27.0132 26.2584 27.6449 26.9059C28.2766 27.5534 28.6315 28.4316 28.6315 29.3473C28.6315 30.263 28.2766 31.1412 27.6449 31.7887C27.0132 32.4362 26.1565 32.7999 25.2631 32.7999C24.3697 32.7999 23.513 32.4362 22.8813 31.7887C22.2496 31.1412 21.8947 30.263 21.8947 29.3473C21.8947 28.4316 22.2496 27.5534 22.8813 26.9059C23.513 26.2584 24.3697 25.8947 25.2631 25.8947ZM25.2631 27.621C24.8164 27.621 24.388 27.8029 24.0722 28.1266C23.7563 28.4503 23.5789 28.8894 23.5789 29.3473C23.5789 29.8051 23.7563 30.2442 24.0722 30.568C24.388 30.8917 24.8164 31.0736 25.2631 31.0736C25.7098 31.0736 26.1382 30.8917 26.454 30.568C26.7699 30.2442 26.9473 29.8051 26.9473 29.3473C26.9473 28.8894 26.7699 28.4503 26.454 28.1266C26.1382 27.8029 25.7098 27.621 25.2631 27.621ZM10.1052 25.8947C10.9986 25.8947 11.8554 26.2584 12.4871 26.9059C13.1188 27.5534 13.4736 28.4316 13.4736 29.3473C13.4736 30.263 13.1188 31.1412 12.4871 31.7887C11.8554 32.4362 10.9986 32.7999 10.1052 32.7999C9.21188 32.7999 8.35511 32.4362 7.72341 31.7887C7.09171 31.1412 6.73682 30.263 6.73682 29.3473C6.73682 28.4316 7.09171 27.5534 7.72341 26.9059C8.35511 26.2584 9.21188 25.8947 10.1052 25.8947ZM10.1052 27.621C9.65856 27.621 9.23017 27.8029 8.91432 28.1266C8.59847 28.4503 8.42103 28.8894 8.42103 29.3473C8.42103 29.8051 8.59847 30.2442 8.91432 30.568C9.23017 30.8917 9.65856 31.0736 10.1052 31.0736C10.5519 31.0736 10.9803 30.8917 11.2962 30.568C11.612 30.2442 11.7894 29.8051 11.7894 29.3473C11.7894 28.8894 11.612 28.4503 11.2962 28.1266C10.9803 27.8029 10.5519 27.621 10.1052 27.621ZM28.6315 5.17893H5.50735L9.80208 15.5368H23.5789C24.1347 15.5368 24.6231 15.2606 24.9263 14.8463L29.9789 7.94103C30.1978 7.64756 30.3157 7.28503 30.3157 6.90525C30.3157 6.4474 30.1383 6.00831 29.8224 5.68456C29.5066 5.36081 29.0782 5.17893 28.6315 5.17893ZM23.5789 17.2631H9.88629L8.58945 19.9562L8.42103 20.7157C8.42103 21.1736 8.59847 21.6127 8.91432 21.9364C9.23017 22.2602 9.65856 22.442 10.1052 22.442H28.6315V24.1684H10.1052C9.21188 24.1684 8.35511 23.8046 7.72341 23.1571C7.09171 22.5096 6.73682 21.6314 6.73682 20.7157C6.73632 20.13 6.88122 19.5537 7.15788 19.0412L8.3705 16.5035L2.25684 1.72631H0V0H3.36841L4.79999 3.45262H28.6315C29.5249 3.45262 30.3816 3.81638 31.0133 4.46387C31.645 5.11136 31.9999 5.98955 31.9999 6.90525C31.9999 7.7684 31.7136 8.49345 31.242 9.0804L26.341 15.7957C25.7347 16.6762 24.7241 17.2631 23.5789 17.2631Z" fill="#198ADA"/>
</svg>
